<svg width="7" height="12" viewBox="0 0 7 12" fill="none" xmlns="http://www.w3.org/2000/svg">
<g opacity="0.8">
<path fill-rule="evenodd" clip-rule="evenodd" d="M2.05222 6.0009L6.55002 1.46527C6.88293 1.12914 6.88293 0.587019 6.55002 0.250891C6.39139 0.0903187 6.17503 9.26364e-07 5.94936 9.165e-07C5.72368 9.06636e-07 5.50732 0.0903186 5.34869 0.250891L0.250224 5.39281C-0.0837376 5.72857 -0.0837376 6.27143 0.250224 6.60719L5.34848 11.7491C5.50732 11.9097 5.72368 12 5.94936 12C6.17503 12 6.39139 11.9097 6.55023 11.7491C6.88292 11.4129 6.88293 10.8708 6.54981 10.5347L2.05222 6.0009Z" fill="url(#paint0_radial_166_253)"/>
<path fill-rule="evenodd" clip-rule="evenodd" d="M2.05222 6.0009L6.55002 1.46527C6.88293 1.12914 6.88293 0.587019 6.55002 0.250891C6.39139 0.0903187 6.17503 9.26364e-07 5.94936 9.165e-07C5.72368 9.06636e-07 5.50732 0.0903186 5.34869 0.250891L0.250224 5.39281C-0.0837376 5.72857 -0.0837376 6.27143 0.250224 6.60719L5.34848 11.7491C5.50732 11.9097 5.72368 12 5.94936 12C6.17503 12 6.39139 11.9097 6.55023 11.7491C6.88292 11.4129 6.88293 10.8708 6.54981 10.5347L2.05222 6.0009Z" fill="white"/>
<path fill-rule="evenodd" clip-rule="evenodd" d="M2.05222 6.0009L6.55002 1.46527C6.88293 1.12914 6.88293 0.587019 6.55002 0.250891C6.39139 0.0903187 6.17503 9.26364e-07 5.94936 9.165e-07C5.72368 9.06636e-07 5.50732 0.0903186 5.34869 0.250891L0.250224 5.39281C-0.0837376 5.72857 -0.0837376 6.27143 0.250224 6.60719L5.34848 11.7491C5.50732 11.9097 5.72368 12 5.94936 12C6.17503 12 6.39139 11.9097 6.55023 11.7491C6.88292 11.4129 6.88293 10.8708 6.54981 10.5347L2.05222 6.0009Z" fill="white" fill-opacity="0.24" style="mix-blend-mode:overlay"/>
</g>
<defs>
<radialGradient id="paint0_radial_166_253" cx="0" cy="0" r="1" gradientUnits="userSpaceOnUse" gradientTransform="translate(3.3998 6) rotate(-180) scale(3.4 6)">
<stop stop-color="#CC8B8B"/>
<stop offset="1" stop-color="#A33B3B"/>
</radialGradient>
</defs>
</svg>
